<svg fill="none" height="48" viewBox="0 0 164 48" width="164" xmlns="http://www.w3.org/2000/svg" xmlns:xlink="http://www.w3.org/1999/xlink"><filter id="a" color-interpolation-filters="sRGB" filterUnits="userSpaceOnUse" height="54" width="48" x="0" y="-3"><feFlood flood-opacity="0" result="BackgroundImageFix"/><feBlend in="SourceGraphic" in2="BackgroundImageFix" mode="normal" result="shape"/><feColorMatrix in="SourceAlpha" result="hardAlpha" type="matrix" values="0 0 0 0 0 0 0 0 0 0 0 0 0 0 0 0 0 0 127 0"/><feOffset dy="-3"/><feGaussianBlur stdDeviation="1.5"/><feComposite in2="hardAlpha" k2="-1" k3="1" operator="arithmetic"/><feColorMatrix type="matrix" values="0 0 0 0 0 0 0 0 0 0 0 0 0 0 0 0 0 0 0.1 0"/><feBlend in2="shape" mode="normal" result="effect1_innerShadow_3046_38795"/><feColorMatrix in="SourceAlpha" result="hardAlpha" type="matrix" values="0 0 0 0 0 0 0 0 0 0 0 0 0 0 0 0 0 0 127 0"/><feOffset dy="3"/><feGaussianBlur stdDeviation="1.5"/><feComposite in2="hardAlpha" k2="-1" k3="1" operator="arithmetic"/><feColorMatrix type="matrix" values="0 0 0 0 1 0 0 0 0 1 0 0 0 0 1 0 0 0 0.1 0"/><feBlend in2="effect1_innerShadow_3046_38795" mode="normal" result="effect2_innerShadow_3046_38795"/><feColorMatrix in="SourceAlpha" result="hardAlpha" type="matrix" values="0 0 0 0 0 0 0 0 0 0 0 0 0 0 0 0 0 0 127 0"/><feMorphology in="SourceAlpha" operator="erode" radius="1" result="effect3_innerShadow_3046_38795"/><feOffset/><feComposite in2="hardAlpha" k2="-1" k3="1" operator="arithmetic"/><feColorMatrix type="matrix" values="0 0 0 0 0.0627451 0 0 0 0 0.0941176 0 0 0 0 0.156863 0 0 0 0.24 0"/><feBlend in2="effect2_innerShadow_3046_38795" mode="normal" result="effect3_innerShadow_3046_38795"/></filter><filter id="b" color-interpolation-filters="sRGB" filterUnits="userSpaceOnUse" height="42" width="36" x="6" y="5.25"><feFlood flood-opacity="0" result="BackgroundImageFix"/><feColorMatrix in="SourceAlpha" result="hardAlpha" type="matrix" values="0 0 0 0 0 0 0 0 0 0 0 0 0 0 0 0 0 0 127 0"/><feMorphology in="SourceAlpha" operator="erode" radius="1.5" result="effect1_dropShadow_3046_38795"/><feOffset dy="2.25"/><feGaussianBlur stdDeviation="2.25"/><feComposite in2="hardAlpha" operator="out"/><feColorMatrix type="matrix" values="0 0 0 0 0.141176 0 0 0 0 0.141176 0 0 0 0 0.141176 0 0 0 0.1 0"/><feBlend in2="BackgroundImageFix" mode="normal" result="effect1_dropShadow_3046_38795"/><feBlend in="SourceGraphic" in2="effect1_dropShadow_3046_38795" mode="normal" result="shape"/></filter><linearGradient id="c" gradientUnits="userSpaceOnUse" x1="24" x2="26" y1=".000001" y2="48"><stop offset="0" stop-color="#fff" stop-opacity="0"/><stop offset="1" stop-color="#fff" stop-opacity=".12"/></linearGradient><linearGradient id="d"><stop offset="0" stop-color="#fff" stop-opacity=".8"/><stop offset="1" stop-color="#fff" stop-opacity=".5"/></linearGradient><linearGradient id="e" gradientUnits="userSpaceOnUse" x1="24" x2="24" xlink:href="#d" y1="9" y2="39"/><linearGradient id="f" gradientUnits="userSpaceOnUse" x1="27.75" x2="27.75" xlink:href="#d" y1="24" y2="31.5"/><linearGradient id="g" gradientUnits="userSpaceOnUse" x1="34.2466" x2="34.2466" xlink:href="#d" y1="31.5" y2="36.9933"/><linearGradient id="h" gradientUnits="userSpaceOnUse" x1="24" x2="24" y1="0" y2="48"><stop offset="0" stop-color="#fff" stop-opacity=".12"/><stop offset="1" stop-color="#fff" stop-opacity="0"/></linearGradient><clipPath id="i"><rect height="48" rx="12" width="48"/></clipPath><g filter="url(#a)"><g clip-path="url(#i)"><rect fill="#7839ee" height="48" rx="12" width="48"/><path d="m0 0h48v48h-48z" fill="url(#c)"/><g filter="url(#b)"><path d="m16.5 24c0-4.1421 3.3579-7.5 7.5-7.5s7.5 3.3579 7.5 7.5h7.5c0-8.2843-6.7157-15-15-15s-15 6.7157-15 15 6.7157 15 15 15v-7.5c-4.1421 0-7.5-3.3579-7.5-7.5z" fill="url(#e)"/><path d="m24 24h7.5v7.5h-7.5z" fill="url(#f)" opacity=".5"/><path d="m36.9933 31.5h-5.4933v5.4933c2.2772-1.3173 4.176-3.2161 5.4933-5.4933z" fill="url(#g)"/></g></g><rect height="46" rx="11" stroke="url(#h)" stroke-width="2" width="46" x="1" y="1"/></g><g fill="#fff"><path d="m99.1982 17.6001c-.75 0-1.3666-.2167-1.85-.65-.4666-.45-.7-1-.7-1.65 0-.6667.2334-1.2167.7-1.65.4834-.45 1.1-.675 1.85-.675.7334 0 1.3338.225 1.7998.675.484.4333.725.9833.725 1.65 0 .65-.241 1.2-.725 1.65-.466.4333-1.0664.65-1.7998.65z"/><path d="m101.323 19.0501v13.95h-4.2748v-13.95z"/><path clip-rule="evenodd" d="m68.7994 33.1215c-1.2487-.1297-2.4154-.4952-3.5002-1.0964-1.3666-.7667-2.4583-1.8333-3.275-3.2-.8-1.3833-1.2-2.9333-1.2-4.65s.4-3.2583 1.2-4.625c.8167-1.3667 1.9084-2.4333 3.275-3.2 1.3834-.7667 2.9-1.15 4.55-1.15s3.1584.3833 4.525 1.15c1.3834.7667 2.4667 1.8333 3.25 3.2.8 1.3667 1.2 2.9083 1.2 4.625s-.4 3.2667-1.2 4.65c-.8 1.3667-1.8833 2.4333-3.25 3.2-.8327.4672-1.7181.792-2.6561.9745.0631.4363.1987.7911.4069 1.0642.2986.4107.7.6907 1.204.84.504.168 1.0733.252 1.708.252.8026 0 1.4746-.084 2.016-.252.56-.168 1.0173-.4013 1.372-.7l.728 3.332c-.4854.3734-1.1107.6534-1.876.84-.7654.2054-1.5214.308-2.268.308-1.232 0-2.3147-.2053-3.248-.616-.9334-.4106-1.6614-1.008-2.184-1.792-.5227-.784-.784-1.7546-.784-2.912 0-.0799.0021-.1607.0064-.2423zm4.3998-5.2464c-.8333.9333-1.95 1.4-3.35 1.4-1.4166 0-2.55-.4583-3.4-1.375-.8333-.9333-1.25-2.175-1.25-3.725 0-1.5667.4167-2.8083 1.25-3.725.85-.9167 1.9834-1.375 3.4-1.375 1.4 0 2.5167.4667 3.35 1.4.85.9167 1.275 2.15 1.275 3.7 0 1.5333-.425 2.7667-1.275 3.7z" fill-rule="evenodd"/><path d="m94.4775 33.0001v-13.95h-4.275v7.575c0 .9333-.2416 1.6583-.725 2.175-.4833.5167-1.1416.775-1.975.775-.8166 0-1.4666-.2583-1.95-.775-.4833-.5167-.725-1.2417-.725-2.175v-7.575h-4.25v8.15c0 1.2167.225 2.275.675 3.175s1.0834 1.5917 1.9 2.075c.8167.4667 1.7584.7 2.825.7.9 0 1.7167-.1833 2.45-.55.75-.3833 1.3417-.8833 1.775-1.5v1.9z"/><path d="m109.496 29.1251 2.675 3.875h4.8l-4.8-6.925 4.675-7.025h-4.625l-2.25 3.85-2.675-3.85h-4.8l4.725 6.825-4.6 7.125h4.625z"/><path clip-rule="evenodd" d="m124.469 33.2001c-1.367 0-2.6-.2917-3.7-.875-1.084-.5833-1.942-1.4167-2.575-2.5-.617-1.0833-.925-2.35-.925-3.8 0-1.4333.316-2.6917.95-3.775.633-1.1 1.5-1.9417 2.6-2.525s2.333-.875 3.7-.875c1.366 0 2.6.2917 3.7.875s1.966 1.425 2.6 2.525c.633 1.0833.95 2.3417.95 3.775s-.325 2.7-.975 3.8c-.634 1.0833-1.509 1.9167-2.625 2.5-1.1.5833-2.334.875-3.7.875zm0-3.7c.816 0 1.508-.3 2.075-.9.583-.6.875-1.4583.875-2.575s-.284-1.975-.85-2.575c-.55-.6-1.234-.9-2.05-.9-.834 0-1.525.3-2.075.9-.55.5833-.825 1.4417-.825 2.575 0 1.1167.266 1.975.8 2.575.55.6 1.233.9 2.05.9z" fill-rule="evenodd"/><path d="m141.312 33.0001v-3.625h-1.525c-.467 0-.8-.0917-1-.275s-.3-.4833-.3-.9v-5.6h2.8v-3.55h-2.8v-3.4h-4.275v3.4h-1.7v3.55h1.7v5.55c0 1.7167.433 2.9583 1.3 3.725.866.75 2.075 1.125 3.625 1.125z"/><path d="m145.343 17.6001c-.75 0-1.367-.2167-1.85-.65-.467-.45-.7-1-.7-1.65 0-.6667.233-1.2167.7-1.65.483-.45 1.1-.675 1.85-.675.733 0 1.333.225 1.8.675.483.4333.725.9833.725 1.65 0 .65-.242 1.2-.725 1.65-.467.4333-1.067.65-1.8.65z"/><path d="m147.468 33.0001h-4.275v-13.95h4.275z"/><path d="m150.091 22.2251c-.584 1.0833-.875 2.35-.875 3.8s.291 2.7167.875 3.8c.6 1.0833 1.425 1.9167 2.475 2.5 1.066.5833 2.283.875 3.65.875 1.733 0 3.191-.4667 4.375-1.4 1.183-.9333 1.958-2.2167 2.325-3.85h-4.55c-.384 1.0667-1.125 1.6-2.225 1.6-.784 0-1.409-.3-1.875-.9-.467-.6167-.7-1.4917-.7-2.625s.233-2 .7-2.6c.466-.6167 1.091-.925 1.875-.925 1.1 0 1.841.5333 2.225 1.6h4.55c-.367-1.6667-1.142-2.9583-2.325-3.875-1.167-.9167-2.625-1.375-4.375-1.375-1.367 0-2.584.2917-3.65.875-1.05.5833-1.875 1.4167-2.475 2.5z"/></g></svg>